<svg width="25" height="24" viewBox="0 0 25 24" fill="none" xmlns="http://www.w3.org/2000/svg">
<g clip-path="url(#clip0_6586_282)">
<path d="M16.5607 1.5C16.9586 1.5 17.3401 1.65804 17.6214 1.93934C17.9027 2.22064 18.0607 2.60218 18.0607 3V21C18.0607 21.3978 17.9027 21.7794 17.6214 22.0607C17.3401 22.342 16.9586 22.5 16.5607 22.5H7.56073C7.16291 22.5 6.78137 22.342 6.50007 22.0607C6.21877 21.7794 6.06073 21.3978 6.06073 21V3C6.06073 2.60218 6.21877 2.22064 6.50007 1.93934C6.78137 1.65804 7.16291 1.5 7.56073 1.5H16.5607ZM7.56073 0C6.76508 0 6.00202 0.316071 5.43941 0.87868C4.8768 1.44129 4.56073 2.20435 4.56073 3V21C4.56073 21.7956 4.8768 22.5587 5.43941 23.1213C6.00202 23.6839 6.76508 24 7.56073 24H16.5607C17.3564 24 18.1194 23.6839 18.682 23.1213C19.2447 22.5587 19.5607 21.7956 19.5607 21V3C19.5607 2.20435 19.2447 1.44129 18.682 0.87868C18.1194 0.316071 17.3564 0 16.5607 0L7.56073 0Z" fill="#01248C"/>
<path d="M12.0607 21C12.4586 21 12.8401 20.842 13.1214 20.5607C13.4027 20.2794 13.5607 19.8978 13.5607 19.5C13.5607 19.1022 13.4027 18.7206 13.1214 18.4393C12.8401 18.158 12.4586 18 12.0607 18C11.6629 18 11.2814 18.158 11.0001 18.4393C10.7188 18.7206 10.5607 19.1022 10.5607 19.5C10.5607 19.8978 10.7188 20.2794 11.0001 20.5607C11.2814 20.842 11.6629 21 12.0607 21Z" fill="#01248C"/>
</g>
<defs>
<clipPath id="clip0_6586_282">
<rect width="24" height="24" fill="white" transform="translate(0.06073)"/>
</clipPath>
</defs>
</svg>
