<svg width="43" height="42" viewBox="0 0 43 42" fill="none" xmlns="http://www.w3.org/2000/svg">
<g id="Group 5">
<path id="Vector" d="M32.8897 39.5784H38.3559C39.3224 39.5784 40.2493 39.1945 40.9327 38.5111C41.6161 37.8277 42 36.9008 42 35.9343V17.7137C42 16.7472 41.6161 15.8203 40.9327 15.1369C40.2493 14.4535 39.3224 14.0696 38.3559 14.0696M38.3559 14.0696H31.0676M38.3559 14.0696V10.0137C38.3559 9.82822 38.3194 9.6446 38.2484 9.47327C38.1774 9.30195 38.0734 9.14628 37.9423 9.01516C37.8112 8.88403 37.6555 8.78002 37.4842 8.70905C37.3128 8.63809 37.1292 8.60156 36.9438 8.60156H32.4797C32.2943 8.60156 32.1107 8.63809 31.9393 8.70905C31.768 8.78002 31.6124 8.88403 31.4812 9.01516C31.3501 9.14628 31.2461 9.30195 31.1751 9.47327C31.1042 9.6446 31.0676 9.82822 31.0676 10.0137V14.0696M31.0676 14.0696C30.1012 14.0696 29.1743 14.4535 28.4909 15.1369C27.8075 15.8203 27.4235 16.7472 27.4235 17.7137V28.646M42 21.3578H27.4235M42 32.2902H32.8897M1 34.4256L6.35139 38.7075C8.04711 40.0642 10.1542 40.8032 12.3259 40.8028H23.3221C23.7408 40.8028 24.1554 40.7204 24.5423 40.5601C24.9291 40.3999 25.2807 40.165 25.5767 39.8689C25.8728 39.5728 26.1077 39.2213 26.2679 38.8345C26.4282 38.4476 26.5107 38.033 26.5107 37.6142C26.5107 37.1955 26.4282 36.7809 26.2679 36.394C26.1077 36.0071 25.8728 35.6556 25.5767 35.3595C25.2807 35.0635 24.9291 34.8286 24.5423 34.6683C24.1554 34.5081 23.7408 34.4256 23.3221 34.4256H15.0827" stroke="white" stroke-width="2" stroke-linecap="round" stroke-linejoin="round"/>
<path id="Vector_2" d="M1 22.7226H7.37721C9.26669 22.7226 11.1143 23.2838 12.6867 24.3315L16.3308 26.7603C16.6762 26.9675 16.976 27.2428 17.2119 27.5693C17.4478 27.8958 17.6149 28.2668 17.7032 28.6599C17.7914 29.0529 17.7989 29.4598 17.7253 29.8558C17.6516 30.2518 17.4983 30.6288 17.2746 30.9638C16.8722 31.5669 16.2634 32.0025 15.5626 32.1887C14.8618 32.3749 14.1171 32.2989 13.4684 31.975L8.68181 29.0998M34.4221 1V6.46618M23.4897 4.64412L24.3042 3.01338C24.607 2.40822 25.0723 1.89934 25.648 1.54373C26.2238 1.18813 26.8871 0.999854 27.5638 1H39.8882M21.6676 14.6655C21.6676 15.8736 21.1877 17.0322 20.3335 17.8864C19.4792 18.7407 18.3206 19.2206 17.1125 19.2206C15.9044 19.2206 14.7458 18.7407 13.8915 17.8864C13.0372 17.0322 12.5573 15.8736 12.5573 14.6655C12.5573 11.2491 17.1125 5.55515 17.1125 5.55515C17.1125 5.55515 21.6676 11.2491 21.6676 14.6655Z" stroke="white" stroke-width="2" stroke-linecap="round" stroke-linejoin="round"/>
</g>
</svg>
