<svg width="58" height="33" viewBox="0 0 58 33" fill="none" xmlns="http://www.w3.org/2000/svg">
<path d="M16.2727 31.4951V28.9951C16.2727 25.6799 17.6136 22.5005 20.0005 20.1563C22.3873 17.8121 25.6245 16.4951 29 16.4951M29 16.4951C32.3755 16.4951 35.6127 17.8121 37.9995 20.1563C40.3864 22.5005 41.7273 25.6799 41.7273 28.9951V31.4951M29 16.4951C31.0253 16.4951 32.9676 15.705 34.3997 14.2985C35.8318 12.8919 36.6364 10.9843 36.6364 8.99515C36.6364 7.00602 35.8318 5.09837 34.3997 3.69185C32.9676 2.28532 31.0253 1.49515 29 1.49515C26.9747 1.49515 25.0324 2.28532 23.6003 3.69185C22.1682 5.09837 21.3636 7.00602 21.3636 8.99515C21.3636 10.9843 22.1682 12.8919 23.6003 14.2985C25.0324 15.705 26.9747 16.4951 29 16.4951ZM1 31.4951V28.9951C1 27.006 1.80454 25.0984 3.23664 23.6918C4.66874 22.2853 6.61107 21.4951 8.63636 21.4951M8.63636 21.4951C9.98656 21.4951 11.2814 20.9684 12.2362 20.0307C13.1909 19.093 13.7273 17.8212 13.7273 16.4951C13.7273 15.1691 13.1909 13.8973 12.2362 12.9596C11.2814 12.0219 9.98656 11.4951 8.63636 11.4951C7.28617 11.4951 5.99128 12.0219 5.03655 12.9596C4.08182 13.8973 3.54545 15.1691 3.54545 16.4951C3.54545 17.8212 4.08182 19.093 5.03655 20.0307C5.99128 20.9684 7.28617 21.4951 8.63636 21.4951ZM57 31.4951V28.9951C57 27.006 56.1955 25.0984 54.7634 23.6918C53.3313 22.2853 51.3889 21.4951 49.3636 21.4951M49.3636 21.4951C50.7138 21.4951 52.0087 20.9684 52.9635 20.0307C53.9182 19.093 54.4545 17.8212 54.4545 16.4951C54.4545 15.1691 53.9182 13.8973 52.9635 12.9596C52.0087 12.0219 50.7138 11.4951 49.3636 11.4951C48.0134 11.4951 46.7186 12.0219 45.7638 12.9596C44.8091 13.8973 44.2727 15.1691 44.2727 16.4951C44.2727 17.8212 44.8091 19.093 45.7638 20.0307C46.7186 20.9684 48.0134 21.4951 49.3636 21.4951Z" stroke="white" stroke-width="2" stroke-linecap="round" stroke-linejoin="round"/>
</svg>
