<svg width="58" height="32" viewBox="0 0 58 32" fill="none" xmlns="http://www.w3.org/2000/svg">
<path id="Vector" d="M16.2727 31V28.5C16.2727 25.1848 17.6136 22.0054 20.0005 19.6612C22.3873 17.317 25.6245 16 29 16M29 16C32.3755 16 35.6127 17.317 37.9995 19.6612C40.3864 22.0054 41.7273 25.1848 41.7273 28.5V31M29 16C31.0253 16 32.9676 15.2098 34.3997 13.8033C35.8318 12.3968 36.6364 10.4891 36.6364 8.5C36.6364 6.51088 35.8318 4.60322 34.3997 3.1967C32.9676 1.79018 31.0253 1 29 1C26.9747 1 25.0324 1.79018 23.6003 3.1967C22.1682 4.60322 21.3636 6.51088 21.3636 8.5C21.3636 10.4891 22.1682 12.3968 23.6003 13.8033C25.0324 15.2098 26.9747 16 29 16ZM1 31V28.5C1 26.5109 1.80454 24.6032 3.23664 23.1967C4.66874 21.7902 6.61107 21 8.63636 21M8.63636 21C9.98656 21 11.2814 20.4732 12.2362 19.5355C13.1909 18.5979 13.7273 17.3261 13.7273 16C13.7273 14.6739 13.1909 13.4021 12.2362 12.4645C11.2814 11.5268 9.98656 11 8.63636 11C7.28617 11 5.99128 11.5268 5.03655 12.4645C4.08182 13.4021 3.54545 14.6739 3.54545 16C3.54545 17.3261 4.08182 18.5979 5.03655 19.5355C5.99128 20.4732 7.28617 21 8.63636 21ZM57 31V28.5C57 26.5109 56.1955 24.6032 54.7634 23.1967C53.3313 21.7902 51.3889 21 49.3636 21M49.3636 21C50.7138 21 52.0087 20.4732 52.9635 19.5355C53.9182 18.5979 54.4545 17.3261 54.4545 16C54.4545 14.6739 53.9182 13.4021 52.9635 12.4645C52.0087 11.5268 50.7138 11 49.3636 11C48.0134 11 46.7186 11.5268 45.7638 12.4645C44.8091 13.4021 44.2727 14.6739 44.2727 16C44.2727 17.3261 44.8091 18.5979 45.7638 19.5355C46.7186 20.4732 48.0134 21 49.3636 21Z" stroke="white" stroke-width="2" stroke-linecap="round" stroke-linejoin="round"/>
</svg>
