<svg width="43" height="45" viewBox="0 0 43 45" fill="none" xmlns="http://www.w3.org/2000/svg">
<path d="M3.91835 5.90875C4.12126 5.90875 4.32416 5.85078 4.48842 5.71551C4.91355 5.39666 5.01018 4.78794 4.69132 4.36281L1.74437 0.391665C1.42552 -0.0334694 0.8168 -0.130091 0.391665 0.18876C-0.0334694 0.507611 -0.130091 1.11633 0.18876 1.54146L3.13572 5.51261C3.32896 5.76382 3.61882 5.89909 3.90869 5.89909L3.91835 5.90875Z" fill="#01248C" fill-opacity="0.8"/>
<path d="M12.371 6.01279C12.4966 6.42826 12.8831 6.6988 13.2985 6.6988C13.3952 6.6988 13.4821 6.68914 13.5787 6.66016C14.0908 6.50556 14.3807 5.96448 14.2261 5.45239L12.7768 0.688946C12.6222 0.176852 12.0908 -0.113013 11.569 0.0415816C11.0569 0.196176 10.7671 0.737257 10.9216 1.24935L12.371 6.01279Z" fill="#01248C" fill-opacity="0.8"/>
<path d="M21.2339 6.92776C21.7653 6.92776 22.2001 6.49297 22.2001 5.96155L22.2001 0.966215C22.2001 0.434797 21.7653 0 21.2339 0C20.7025 0 20.2677 0.434797 20.2677 0.966215L20.2677 5.96155C20.2677 6.49297 20.7025 6.92776 21.2339 6.92776Z" fill="#01248C" fill-opacity="0.8"/>
<path d="M28.8891 6.66016C28.9857 6.68914 29.0823 6.69881 29.1693 6.69881C29.5848 6.69881 29.9712 6.42827 30.0969 6.01279L31.5462 1.24935C31.7008 0.737257 31.4109 0.196176 30.8988 0.0415816C30.3867 -0.113013 29.8456 0.176852 29.691 0.688946L28.2417 5.45239C28.0871 5.96448 28.377 6.50556 28.8891 6.66016Z" fill="#01248C" fill-opacity="0.8"/>
<path d="M42.079 0.191566C41.6539 -0.127285 41.0451 -0.0403254 40.7263 0.394471L37.7793 4.36562C37.4605 4.79075 37.5474 5.39947 37.9822 5.71832C38.1562 5.84393 38.3591 5.91156 38.562 5.91156C38.8615 5.91156 39.1514 5.77629 39.3349 5.52508L42.2819 1.55393C42.6007 1.12879 42.5138 0.520079 42.079 0.201228L42.079 0.191566Z" fill="#01248C" fill-opacity="0.8"/>
<path d="M39.6743 18.8943C39.6743 18.8943 39.6743 18.817 39.655 18.7783C39.6453 18.73 39.626 18.6817 39.6067 18.6334C39.597 18.6044 39.5873 18.5754 39.5777 18.5464C39.5777 18.5464 39.5777 18.5368 39.568 18.5271C39.568 18.5271 39.568 18.5078 39.5583 18.5078L34.0026 8.87462C34.0026 8.35287 33.5678 7.92773 33.0364 7.92773L9.56701 7.92773C9.27715 7.92773 9.02593 8.063 8.85202 8.26591C8.81337 8.31422 8.76506 8.36253 8.73607 8.41084L2.90979 18.5078C2.90979 18.5078 2.90979 18.5271 2.90013 18.5271C2.90013 18.5271 2.90013 18.5368 2.89047 18.5464C2.8808 18.5754 2.87114 18.6044 2.86148 18.6334C2.84216 18.6817 2.82283 18.73 2.81317 18.7783C2.81317 18.817 2.80351 18.8556 2.79385 18.8943C2.79385 18.9426 2.78418 18.9909 2.79385 19.0392C2.79385 19.0779 2.79384 19.1165 2.81317 19.1552C2.81317 19.2035 2.83249 19.2421 2.84216 19.2904C2.85182 19.3291 2.87114 19.3677 2.89047 19.3967C2.90013 19.4257 2.90979 19.4547 2.92912 19.4837C2.92912 19.4933 2.94844 19.5127 2.9581 19.5223C2.9581 19.532 2.96776 19.5513 2.97743 19.561L20.4659 44.1511C20.4659 44.1511 20.4949 44.1705 20.5046 44.1898C20.5046 44.1898 20.5046 44.1898 20.5046 44.1995C20.5336 44.2381 20.5722 44.2768 20.6109 44.3154C20.6592 44.354 20.7075 44.383 20.7558 44.412C20.7751 44.4217 20.7944 44.441 20.8138 44.4507C20.8138 44.4507 20.8234 44.4603 20.8331 44.47C20.8427 44.47 20.8621 44.47 20.8717 44.47C20.9877 44.5183 21.1036 44.5473 21.2389 44.5473C21.3742 44.5473 21.4901 44.5183 21.6061 44.47C21.6157 44.47 21.6254 44.47 21.6447 44.47C21.6447 44.47 21.6544 44.4603 21.664 44.4507C21.6834 44.441 21.7027 44.4217 21.722 44.412C21.7703 44.383 21.8283 44.354 21.8669 44.3154C21.9056 44.2768 21.9346 44.2478 21.9636 44.1995C21.9636 44.1995 21.9636 44.1995 21.9732 44.1898C21.9829 44.1801 22.0022 44.1705 22.0119 44.1511L39.5004 19.561C39.5004 19.561 39.51 19.532 39.5197 19.5223C39.5197 19.5127 39.539 19.4933 39.5487 19.4837C39.568 19.4547 39.568 19.4257 39.5873 19.3967C39.6066 19.3581 39.6163 19.3291 39.6356 19.2904C39.6453 19.2421 39.655 19.2035 39.6646 19.1552C39.6646 19.1165 39.6743 19.0779 39.6839 19.0392C39.6839 18.9909 39.6839 18.9426 39.6839 18.8943L39.6743 18.8943ZM25.8381 19.9668L21.2292 39.407L16.6204 19.9668L25.8381 19.9668ZM17.0745 18.0343L21.2292 10.836L25.384 18.0343L17.0745 18.0343ZM22.9008 9.86983L31.2102 9.86983L27.0555 17.0681L22.9008 9.86983ZM15.3933 17.0681L11.2386 9.86983L19.548 9.86983L15.3933 17.0681ZM32.8818 10.836L37.0365 18.0343L28.7271 18.0343L32.8818 10.836ZM9.55735 10.836L13.7121 18.0343L5.41229 18.0343L9.56701 10.836L9.55735 10.836ZM5.60553 19.9668L14.63 19.9668L19.1422 38.9916L5.61519 19.9668L5.60553 19.9668ZM23.3066 38.9916L27.8188 19.9668L36.8433 19.9668L23.3066 38.9916Z" fill="#01248C" fill-opacity="0.8"/>
</svg>
