<svg width="43" height="42" viewBox="0 0 43 42" fill="none" xmlns="http://www.w3.org/2000/svg">
<g id="Group 5">
<path id="Vector" d="M32.8897 39.5783H38.3559C39.3224 39.5783 40.2493 39.1943 40.9327 38.5109C41.6161 37.8275 42 36.9006 42 35.9341V17.7135C42 16.7471 41.6161 15.8202 40.9327 15.1368C40.2493 14.4533 39.3224 14.0694 38.3559 14.0694M38.3559 14.0694H31.0676M38.3559 14.0694V10.0135C38.3559 9.82807 38.3194 9.64444 38.2484 9.47312C38.1774 9.3018 38.0734 9.14613 37.9423 9.015C37.8112 8.88388 37.6555 8.77986 37.4842 8.7089C37.3128 8.63793 37.1292 8.60141 36.9438 8.60141H32.4797C32.2943 8.60141 32.1107 8.63793 31.9393 8.7089C31.768 8.77986 31.6124 8.88388 31.4812 9.015C31.3501 9.14613 31.2461 9.3018 31.1751 9.47312C31.1042 9.64444 31.0676 9.82807 31.0676 10.0135V14.0694M31.0676 14.0694C30.1012 14.0694 29.1743 14.4533 28.4909 15.1368C27.8075 15.8202 27.4235 16.7471 27.4235 17.7135V28.6459M42 21.3577H27.4235M42 32.29H32.8897M1 34.4255L6.35139 38.7073C8.04711 40.0641 10.1542 40.8031 12.3259 40.8027H23.3221C23.7408 40.8027 24.1554 40.7202 24.5423 40.56C24.9291 40.3997 25.2807 40.1648 25.5767 39.8688C25.8728 39.5727 26.1077 39.2212 26.2679 38.8343C26.4282 38.4474 26.5107 38.0328 26.5107 37.6141C26.5107 37.1953 26.4282 36.7807 26.2679 36.3938C26.1077 36.007 25.8728 35.6555 25.5767 35.3594C25.2807 35.0633 24.9291 34.8284 24.5423 34.6682C24.1554 34.5079 23.7408 34.4255 23.3221 34.4255H15.0827" stroke="white" stroke-width="2" stroke-linecap="round" stroke-linejoin="round"/>
<path id="Vector_2" d="M1 22.7226H7.37721C9.26669 22.7226 11.1143 23.2838 12.6867 24.3315L16.3308 26.7603C16.6762 26.9675 16.976 27.2428 17.2119 27.5693C17.4478 27.8958 17.6149 28.2668 17.7032 28.6599C17.7914 29.0529 17.7989 29.4598 17.7253 29.8558C17.6516 30.2518 17.4983 30.6288 17.2746 30.9638C16.8722 31.5669 16.2634 32.0025 15.5626 32.1887C14.8618 32.3749 14.1171 32.2989 13.4684 31.975L8.68181 29.0998M34.4221 1V6.46618M23.4897 4.64412L24.3042 3.01338C24.607 2.40822 25.0723 1.89934 25.648 1.54373C26.2238 1.18813 26.8871 0.999854 27.5638 1H39.8882M21.6676 14.6655C21.6676 15.8736 21.1877 17.0322 20.3335 17.8864C19.4792 18.7407 18.3206 19.2206 17.1125 19.2206C15.9044 19.2206 14.7458 18.7407 13.8915 17.8864C13.0372 17.0322 12.5573 15.8736 12.5573 14.6655C12.5573 11.2491 17.1125 5.55515 17.1125 5.55515C17.1125 5.55515 21.6676 11.2491 21.6676 14.6655Z" stroke="white" stroke-width="2" stroke-linecap="round" stroke-linejoin="round"/>
</g>
</svg>
