<svg width="32" height="32" viewBox="0 0 32 32" fill="none" xmlns="http://www.w3.org/2000/svg">
<g id="Instagram">
<g clip-path="url(#clip0_6588_2054)">
<g id="Layer 2">
<g id="Layer 1">
<g id="&#60;Group&#62;">
<path id="&#60;Compound Path&#62;" d="M11.0842 5.54199H21.0599C21.2816 5.65283 21.6141 5.65283 21.8358 5.76368C22.8086 5.92133 23.7181 6.34717 24.4622 6.99333C25.2062 7.63949 25.7554 8.48037 26.0478 9.42145C26.2115 9.96377 26.3228 10.5205 26.3803 11.0841V20.8381C26.2218 22.0743 25.7654 23.2535 25.0502 24.2742C24.4367 24.9851 23.6675 25.5449 22.8024 25.9102C21.9373 26.2754 20.9997 26.4363 20.0623 26.3802H11.7492C10.2656 26.4522 8.80697 25.9792 7.64807 25.0501C6.94334 24.4412 6.3872 23.6792 6.02218 22.8224C5.65717 21.9656 5.49294 21.0366 5.54207 20.1066V12.3477C5.52376 11.7912 5.56089 11.2342 5.65292 10.685C5.76484 9.54868 6.23208 8.4765 6.98821 7.62087C7.74435 6.76524 8.75093 6.16969 9.8649 5.91885L11.0842 5.54199ZM7.64807 16.072V20.3948C7.60081 20.9453 7.67445 21.4994 7.86384 22.0184C8.05323 22.5375 8.35379 23.0088 8.74447 23.3995C9.13515 23.7902 9.60651 24.0908 10.1255 24.2801C10.6446 24.4695 11.1987 24.5432 11.7492 24.4959C14.6311 24.6068 17.513 24.6068 20.3949 24.4959C22.9442 24.4959 24.3852 22.9441 24.496 20.3948C24.6068 17.5129 24.6068 14.631 24.496 11.7491C24.5247 11.203 24.4383 10.6569 24.2424 10.1463C24.0464 9.63576 23.7453 9.17207 23.3586 8.78536C22.9719 8.39865 22.5082 8.09756 21.9977 7.90162C21.4871 7.70568 20.941 7.61926 20.3949 7.64798C17.513 7.53714 14.6311 7.53714 11.7492 7.64798C11.1987 7.60073 10.6446 7.67437 10.1255 7.86376C9.60651 8.05315 9.13515 8.35371 8.74447 8.74439C8.35379 9.13507 8.05323 9.60643 7.86384 10.1255C7.67445 10.6445 7.60081 11.1986 7.64807 11.7491V16.072Z" fill="#303B7E"/>
<path id="&#60;Compound Path&#62;_2" d="M10.6851 16.1163C10.688 14.6767 11.2612 13.297 12.2791 12.2791C13.2971 11.2611 14.6768 10.688 16.1164 10.6851C17.5479 10.7134 18.913 11.2947 19.9255 12.3072C20.9379 13.3197 21.5193 14.6847 21.5476 16.1163C21.5447 17.5559 20.9715 18.9356 19.9536 19.9535C18.9357 20.9715 17.5559 21.5446 16.1164 21.5475C14.6848 21.5192 13.3197 20.9379 12.3073 19.9254C11.2948 18.9129 10.7135 17.5479 10.6851 16.1163ZM16.1164 12.6802C15.4431 12.6693 14.782 12.8596 14.2176 13.2268C13.6532 13.594 13.2114 14.1214 12.9487 14.7414C12.686 15.3613 12.6143 16.0456 12.743 16.7065C12.8717 17.3674 13.1948 17.9748 13.6709 18.4509C14.147 18.927 14.7544 19.2501 15.4153 19.3788C16.0762 19.5075 16.7605 19.4359 17.3805 19.1731C18.0004 18.9104 18.5278 18.4686 18.895 17.9042C19.2622 17.3398 19.4526 16.6787 19.4416 16.0055C19.4416 15.1235 19.0913 14.2778 18.4677 13.6542C17.8441 13.0305 16.9983 12.6802 16.1164 12.6802Z" fill="#303B7E"/>
<path id="&#60;Path&#62;" d="M20.3284 10.4632C20.3222 10.2869 20.3523 10.1112 20.417 9.94697C20.4816 9.7828 20.5794 9.63368 20.7042 9.50892C20.8289 9.38415 20.978 9.2864 21.1422 9.22174C21.3064 9.15709 21.4821 9.12692 21.6585 9.13312C22.0035 9.15646 22.3285 9.30409 22.573 9.54865C22.8176 9.79322 22.9652 10.1181 22.9886 10.4632C22.9886 10.816 22.8484 11.1543 22.599 11.4037C22.3495 11.6532 22.0112 11.7933 21.6585 11.7933C21.3057 11.7933 20.9674 11.6532 20.7179 11.4037C20.4685 11.1543 20.3284 10.816 20.3284 10.4632Z" fill="#303B7E"/>
</g>
</g>
</g>
</g>
<rect x="0.5" y="0.5" width="31" height="31" rx="7.5" stroke="#303B7E"/>
</g>
<defs>
<clipPath id="clip0_6588_2054">
<rect width="32" height="32" rx="8" fill="white"/>
</clipPath>
</defs>
</svg>
