<svg width="32" height="32" viewBox="0 0 32 32" fill="none" xmlns="http://www.w3.org/2000/svg">
<g id="Instagram">
<g clip-path="url(#clip0_6809_1425)">
<g id="Layer 2">
<g id="Layer 1">
<g id="&#60;Group&#62;">
<path id="&#60;Compound Path&#62;" d="M11.0843 5.54199H21.06C21.2817 5.65283 21.6142 5.65283 21.8359 5.76368C22.8087 5.92133 23.7182 6.34717 24.4623 6.99333C25.2064 7.63949 25.7555 8.48037 26.0479 9.42145C26.2116 9.96377 26.323 10.5205 26.3804 11.0841V20.8381C26.222 22.0743 25.7655 23.2535 25.0503 24.2742C24.4368 24.9851 23.6676 25.5449 22.8025 25.9102C21.9374 26.2754 20.9998 26.4363 20.0625 26.3802H11.7493C10.2658 26.4522 8.80709 25.9792 7.64819 25.0501C6.94346 24.4412 6.38732 23.6792 6.0223 22.8224C5.65729 21.9656 5.49307 21.0366 5.5422 20.1066V12.3477C5.52389 11.7912 5.56102 11.2342 5.65304 10.685C5.76497 9.54868 6.2322 8.4765 6.98834 7.62087C7.74448 6.76524 8.75105 6.16969 9.86502 5.91885L11.0843 5.54199ZM7.64819 16.072V20.3948C7.60093 20.9453 7.67457 21.4994 7.86396 22.0184C8.05335 22.5375 8.35391 23.0088 8.74459 23.3995C9.13527 23.7902 9.60663 24.0908 10.1257 24.2801C10.6447 24.4695 11.1989 24.5432 11.7493 24.4959C14.6312 24.6068 17.5131 24.6068 20.395 24.4959C22.9443 24.4959 24.3853 22.9441 24.4961 20.3948C24.607 17.5129 24.607 14.631 24.4961 11.7491C24.5248 11.203 24.4384 10.6569 24.2425 10.1463C24.0466 9.63576 23.7455 9.17207 23.3588 8.78536C22.972 8.39865 22.5084 8.09756 21.9978 7.90162C21.4872 7.70568 20.9411 7.61926 20.395 7.64798C17.5131 7.53714 14.6312 7.53714 11.7493 7.64798C11.1989 7.60073 10.6447 7.67437 10.1257 7.86376C9.60663 8.05315 9.13527 8.35371 8.74459 8.74439C8.35391 9.13507 8.05335 9.60643 7.86396 10.1255C7.67457 10.6445 7.60093 11.1986 7.64819 11.7491V16.072Z" fill="#F0F0F6"/>
<path id="&#60;Compound Path&#62;_2" d="M10.6853 16.1158C10.6882 14.6763 11.2614 13.2965 12.2793 12.2786C13.2972 11.2607 14.677 10.6875 16.1165 10.6846C17.5481 10.7129 18.9132 11.2942 19.9256 12.3067C20.9381 13.3192 21.5194 14.6842 21.5478 16.1158C21.5449 17.5554 20.9717 18.9351 19.9538 19.953C18.9359 20.971 17.5561 21.5441 16.1165 21.5471C14.685 21.5187 13.3199 20.9374 12.3075 19.9249C11.295 18.9124 10.7137 17.5474 10.6853 16.1158ZM16.1165 12.6797C15.4433 12.6688 14.7822 12.8591 14.2178 13.2263C13.6534 13.5935 13.2116 14.1209 12.9489 14.7409C12.6861 15.3608 12.6145 16.0451 12.7432 16.706C12.8719 17.3669 13.195 17.9743 13.6711 18.4504C14.1472 18.9265 14.7546 19.2496 15.4155 19.3783C16.0764 19.507 16.7607 19.4354 17.3807 19.1727C18.0006 18.9099 18.528 18.4681 18.8952 17.9037C19.2624 17.3394 19.4527 16.6782 19.4418 16.005C19.4418 15.1231 19.0915 14.2773 18.4679 13.6537C17.8442 13.0301 16.9985 12.6797 16.1165 12.6797Z" fill="#F0F0F6"/>
<path id="&#60;Path&#62;" d="M20.3284 10.4637C20.3222 10.2874 20.3524 10.1116 20.4171 9.94746C20.4817 9.78329 20.5795 9.63417 20.7042 9.5094C20.829 9.38464 20.9781 9.28688 21.1423 9.22223C21.3065 9.15758 21.4822 9.12741 21.6585 9.1336C22.0036 9.15695 22.3285 9.30458 22.5731 9.54914C22.8177 9.79371 22.9653 10.1186 22.9886 10.4637C22.9886 10.8165 22.8485 11.1548 22.5991 11.4042C22.3496 11.6537 22.0113 11.7938 21.6585 11.7938C21.3058 11.7938 20.9674 11.6537 20.718 11.4042C20.4686 11.1548 20.3284 10.8165 20.3284 10.4637Z" fill="#F0F0F6"/>
</g>
</g>
</g>
</g>
<rect x="0.5" y="0.5" width="31" height="31" rx="7.5" stroke="#F0F0F6"/>
</g>
<defs>
<clipPath id="clip0_6809_1425">
<rect width="32" height="32" rx="8" fill="white"/>
</clipPath>
</defs>
</svg>
