<svg width="25" height="20" viewBox="0 0 25 20" fill="none" xmlns="http://www.w3.org/2000/svg">
<path d="M0.56073 16.1154V3.26922H0.983807H1.40688V16.1154H0.56073ZM22.7146 16.1154V3.26922H23.1377H23.5607V16.1154H22.7146ZM22.6527 17.1154H23.5171C23.4151 17.6948 23.1375 18.2335 22.7158 18.6551C22.2942 19.0767 21.7555 19.3544 21.1761 19.4563V18.592C21.9 18.4093 22.4701 17.8392 22.6527 17.1154ZM20.1761 18.6538V19.5H3.94535V18.6538H20.1761ZM2.94535 18.592V19.4563C2.36596 19.3544 1.82725 19.0767 1.40561 18.6551C0.983982 18.2335 0.706353 17.6948 0.604381 17.1154H1.46872C1.6514 17.8392 2.22151 18.4093 2.94535 18.592ZM21.7146 1.84614V2.26922H2.40688V1.84614V1.42307H21.7146V1.84614Z" fill="white" stroke="#01248C"/>
<path d="M0.983795 1.84613L12.0607 12.9231L23.1376 1.84613" stroke="#01248C" stroke-width="1.5" stroke-linecap="round" stroke-linejoin="round"/>
</svg>
