<svg width="42" height="30" viewBox="0 0 42 30" fill="none" xmlns="http://www.w3.org/2000/svg">
<path id="Vector" fill-rule="evenodd" clip-rule="evenodd" d="M20.8077 0.0225327L20.7649 0.0239882L20.7074 0.0297288L20.6642 0.0368848L20.6354 0.0454554L20.5923 0.0568861L20.5491 0.0697424L20.5204 0.0825878L20.5204 0.0854376C20.4916 0.0982832 20.4631 0.112554 20.4344 0.12825L20.4056 0.149645L20.3769 0.172466L20.3337 0.199572L20.305 0.228093L20.2762 0.262313L20.2475 0.30366L20.2187 0.345005L20.19 0.389201L20.1612 0.431972L20.1469 0.476158L20.1325 0.523193L20.1182 0.570229L20.1038 0.614415L20.1039 0.65859L20.0895 0.702775L20.0895 0.735551L20.0964 9.99243L14.8839 17.3649L12.1787 13.5677C12.0492 13.3783 11.8333 13.2659 11.6033 13.266C11.3589 13.2662 11.1435 13.3789 11.0143 13.5686L0.158057 28.8838C0.0144679 29.1005 -0.0141136 29.3855 0.115435 29.622C0.230609 29.857 0.475008 30.005 0.748131 30.0049L40.9979 29.9762C41.2711 29.976 41.5156 29.8276 41.6448 29.5924C41.7596 29.3557 41.745 29.0708 41.5867 28.8543L30.7223 13.5545C30.5927 13.3651 30.3628 13.2527 30.1328 13.2528C29.9028 13.253 29.6727 13.3657 29.5434 13.5554L26.8152 17.4134L21.5338 9.99141L21.5312 6.39325L27.6693 6.38888C27.9424 6.38868 28.2013 6.23032 28.3162 5.98229C28.431 5.73425 28.4019 5.44072 28.2293 5.22709L26.5601 3.20904L28.2263 1.17863C28.3986 0.964757 28.4416 0.671173 28.3121 0.423313C28.1969 0.175443 27.9521 0.0174413 27.6646 0.0176462L20.8077 0.0225327ZM27.6928 18.6511L34.7296 28.5556L39.6169 28.5521L30.1342 15.2037L27.6928 18.6511ZM20.8162 11.4554L32.9759 28.5569L8.69646 28.5742L20.8162 11.4554ZM14.0078 18.6038L11.6047 15.2169L2.14141 28.5788L6.94276 28.5754L14.0078 18.6038ZM21.5275 1.44703L21.5301 4.96824L26.1592 4.96494L25.0801 3.65897C24.8643 3.39692 24.864 3.02214 25.0794 2.75979L26.1566 1.44373L21.5275 1.44703Z" fill="#01248C"/>
</svg>
