<svg width="41" height="41" viewBox="0 0 41 41" fill="none" xmlns="http://www.w3.org/2000/svg">
<g id="Group 6">
<path id="Vector" d="M20.8394 9.5014C20.5374 9.5014 20.2477 9.62138 20.0342 9.83493C19.8206 10.0485 19.7006 10.3381 19.7006 10.6401C19.7006 10.9422 19.8206 11.2318 20.0342 11.4454C20.2477 11.6589 20.5374 11.7789 20.8394 11.7789H27.6719C27.9739 11.7789 28.2635 11.6589 28.4771 11.4454C28.6906 11.2318 28.8106 10.9422 28.8106 10.6401C28.8106 10.3381 28.6906 10.0485 28.4771 9.83493C28.2635 9.62138 27.9739 9.5014 27.6719 9.5014H20.8394ZM24.2556 14.2523C24.5576 14.2523 24.8473 14.3722 25.0608 14.5858C25.2744 14.7993 25.3944 15.089 25.3944 15.391V17.6685C25.3944 17.9705 25.2744 18.2601 25.0608 18.4737C24.8473 18.6873 24.5576 18.8072 24.2556 18.8072C23.9536 18.8072 23.664 18.6873 23.4504 18.4737C23.2368 18.2601 23.1169 17.9705 23.1169 17.6685V15.391C23.1169 15.089 23.2368 14.7993 23.4504 14.5858C23.664 14.3722 23.9536 14.2523 24.2556 14.2523ZM28.9484 14.39C28.7336 14.1826 28.446 14.0678 28.1474 14.0704C27.8488 14.073 27.5632 14.1928 27.3521 14.4039C27.1409 14.615 27.0212 14.9007 27.0186 15.1992C27.016 15.4978 27.1308 15.7855 27.3382 16.0002L28.9484 17.6104C29.0541 17.7162 29.1796 17.8002 29.3178 17.8574C29.456 17.9147 29.6041 17.9442 29.7536 17.9443C29.9032 17.9443 30.0513 17.9149 30.1895 17.8577C30.3277 17.8006 30.4533 17.7167 30.5591 17.611C30.6649 17.5053 30.7489 17.3797 30.8062 17.2416C30.8635 17.1034 30.893 16.9553 30.893 16.8057C30.8931 16.6562 30.8637 16.508 30.8065 16.3698C30.7493 16.2316 30.6654 16.106 30.5597 16.0002L28.9484 14.39ZM17.7568 17.8063C17.5433 17.5927 17.4234 17.3031 17.4234 17.0012C17.4234 16.6992 17.5433 16.4096 17.7568 16.1961L19.367 14.5848C19.5807 14.3712 19.8704 14.2513 20.1725 14.2515C20.4746 14.2516 20.7642 14.3717 20.9777 14.5853C21.1913 14.799 21.3112 15.0888 21.311 15.3908C21.3109 15.6929 21.1908 15.9826 20.9772 16.1961L19.367 17.8063C19.1534 18.0198 18.8638 18.1397 18.5619 18.1397C18.2599 18.1397 17.9703 18.0198 17.7568 17.8063ZM25.3944 21.0847C25.3944 20.7827 25.2744 20.4931 25.0608 20.2795C24.8473 20.066 24.5576 19.946 24.2556 19.946C23.9536 19.946 23.664 20.066 23.4504 20.2795C23.2368 20.4931 23.1169 20.7827 23.1169 21.0847V22.2235C23.1169 22.5255 23.2368 22.8151 23.4504 23.0287C23.664 23.2422 23.9536 23.3622 24.2556 23.3622C24.5576 23.3622 24.8473 23.2422 25.0608 23.0287C25.2744 22.8151 25.3944 22.5255 25.3944 22.2235V21.0847ZM31.3238 18.3756C31.5374 18.1622 31.827 18.0422 32.1289 18.0422C32.4309 18.0422 32.7204 18.1622 32.934 18.3756L34.5442 19.9858C34.7516 20.2006 34.8664 20.4883 34.8638 20.7868C34.8612 21.0854 34.7414 21.371 34.5303 21.5822C34.3192 21.7933 34.0336 21.913 33.735 21.9156C33.4364 21.9182 33.1488 21.8035 32.934 21.596L31.3238 19.9858C31.1103 19.7723 30.9904 19.4827 30.9904 19.1807C30.9904 18.8788 31.1103 18.5892 31.3238 18.3756ZM13.7712 19.897C13.5638 20.1118 13.449 20.3994 13.4516 20.698C13.4542 20.9966 13.5739 21.2822 13.7851 21.4933C13.9962 21.7045 14.2818 21.8242 14.5804 21.8268C14.879 21.8294 15.1666 21.7146 15.3814 21.5072L16.9916 19.897C17.0974 19.7913 17.1813 19.6658 17.2386 19.5276C17.2959 19.3894 17.3254 19.2413 17.3254 19.0918C17.3255 18.9422 17.2961 18.7941 17.2389 18.6559C17.1817 18.5176 17.0979 18.3921 16.9921 18.2863C16.8864 18.1805 16.7609 18.0965 16.6227 18.0392C16.4845 17.9819 16.3364 17.9524 16.1869 17.9524C16.0373 17.9523 15.8892 17.9817 15.751 18.0389C15.6128 18.0961 15.4872 18.18 15.3814 18.2857L13.7712 19.897Z" fill="white"/>
<path id="Vector_2" fill-rule="evenodd" clip-rule="evenodd" d="M40.9948 0V6.83247H19.3587V2.27749C19.3587 1.67346 19.5986 1.09417 20.0257 0.667062C20.4529 0.239949 21.0321 0 21.6362 0H40.9948ZM21.6362 2.27749H38.7174V4.55498H21.6362V2.27749ZM7.97122 38.4327V38.7128C7.97122 39.3168 7.73127 39.8961 7.30416 40.3232C6.87705 40.7503 6.29776 40.9903 5.69373 40.9903H2.27749C1.67346 40.9903 1.09417 40.7503 0.667062 40.3232C0.239949 39.8961 0 39.3168 0 38.7128V26.1923C0 25.5883 0.239949 25.009 0.667062 24.5819C1.09417 24.1547 1.67346 23.9148 2.27749 23.9148H5.69373C6.20665 23.9146 6.70462 24.0875 7.10701 24.4056C7.5094 24.7236 7.79264 25.1682 7.91087 25.6673C9.41857 25.1241 11.1802 24.4773 11.7188 24.2314C12.1766 24.023 12.705 23.9524 13.1445 23.9262C13.5982 23.9042 14.0528 23.9122 14.5053 23.9501C15.0121 23.9905 15.5167 24.0543 16.0176 24.1414L16.0438 24.146L16.0518 24.1471H16.0552L16.0757 24.1517L23.6939 25.8598L23.7406 25.8757L23.7531 25.8803L23.8055 25.8962C24.1341 25.9926 24.4661 26.0773 24.8007 26.1502C25.4555 26.2925 26.2811 26.4257 27.0498 26.4257C27.7603 26.4257 28.496 26.6911 28.8877 27.4107C29.2248 28.0279 29.1462 28.7066 29.0209 29.1758C28.8627 29.7611 28.537 30.376 28.1236 30.8987C28.6816 30.6881 29.2931 30.4387 29.949 30.1699L30.0891 30.113C31.9373 29.3534 34.1282 28.4538 36.0618 28.135C38.271 27.7695 39.8777 28.5711 40.6065 29.9934C41.2556 31.2597 41.1053 32.9211 40.1283 33.9221C39.8834 34.1738 39.5099 34.438 39.1353 34.6805C38.7344 34.9413 38.2414 35.2339 37.6936 35.5459C36.4353 36.2506 35.1615 36.9272 33.8731 37.5752C31.172 38.9451 28.3411 40.2774 27.4415 40.6065C26.3984 40.988 25.2779 41.0245 24.2018 40.9687C23.5519 40.9283 22.903 40.8733 22.2556 40.8035C21.7817 40.7545 21.3072 40.7108 20.8322 40.6726C18.6367 40.5063 16.9514 39.97 15.4004 39.4769L15.2114 39.4165C13.608 38.9087 12.1163 38.4566 10.1405 38.3769C9.68959 38.3587 8.7877 38.394 7.97122 38.4327ZM12.6629 26.3039C12.7369 26.2697 12.9305 26.2208 13.2755 26.2003C13.5989 26.1809 13.9679 26.1934 14.3288 26.2208C14.7362 26.2531 15.1419 26.3029 15.545 26.3699L15.586 26.3779L15.6179 26.3836H15.6213L23.0995 28.061L23.1507 28.0769C23.5354 28.1901 23.9239 28.2896 24.3156 28.3753C24.9818 28.521 25.8757 28.6736 26.7856 28.6998C26.7044 28.919 26.5953 29.1268 26.461 29.3181C26.2788 29.5823 26.0796 29.7862 25.9156 29.9035C25.4419 30.2428 25.0592 30.384 24.8269 30.4444C24.7478 30.466 24.6671 30.4813 24.5855 30.4899H24.5605L18.4545 30.417L18.2382 32.6763L18.2985 32.6877L18.4727 32.7184L19.1059 32.83C19.6377 32.9234 20.3676 33.0487 21.1625 33.1785C22.7271 33.4336 24.6129 33.716 25.6833 33.7809C26.4235 33.8264 27.2843 33.5987 28.0849 33.3311C28.9196 33.0521 29.8636 32.6661 30.8133 32.2766C32.7685 31.4749 34.7602 30.6585 36.433 30.3817C37.8792 30.1426 38.3951 30.671 38.5796 31.032C38.8449 31.5501 38.7014 32.1252 38.4976 32.3324C38.4486 32.3837 38.2698 32.5283 37.8963 32.7708C37.5479 32.9952 37.0981 33.265 36.5697 33.5645C35.3424 34.2516 34.1001 34.9115 32.8437 35.5437C30.1198 36.925 27.4096 38.1924 26.658 38.468C26.0499 38.6912 25.2972 38.7447 24.3191 38.6946C23.7428 38.6606 23.1675 38.6117 22.5939 38.5477C22.0646 38.492 21.5347 38.4434 21.0042 38.4019C19.0774 38.2562 17.613 37.7904 16.0427 37.2916L15.9003 37.2461C14.2742 36.7302 12.5342 36.1939 10.2328 36.1017C9.71464 36.0812 8.79226 36.113 7.97122 36.1518V28.0655C9.57116 27.4927 11.942 26.633 12.6629 26.3039ZM5.69373 26.1912H2.27749V38.7117H5.69373V26.1912Z" fill="white"/>
</g>
</svg>
