<svg width="38" height="42" viewBox="0 0 38 42" fill="none" xmlns="http://www.w3.org/2000/svg">
<g id="Group 4">
<path id="Vector" d="M15.5128 39.7538C15.5204 39.759 15.5326 39.7616 15.5492 39.7616C18.0276 39.765 20.5063 39.7657 22.9852 39.7638C23.8747 39.7631 24.098 41.1397 23.2385 41.4243C23.1315 41.4595 22.9253 41.4771 22.62 41.4771C15.4491 41.4771 8.27817 41.4771 1.10723 41.4771C0.823821 41.4771 0.623862 41.4531 0.507358 41.4051C-0.17312 41.1233 -0.171693 40.094 0.52733 39.8258C0.633373 39.7849 0.807177 39.7645 1.04874 39.7645C3.37217 39.765 5.69392 39.765 8.01402 39.7645C8.03209 39.7645 8.04112 39.7555 8.04112 39.7374C8.04255 31.1941 8.04255 22.6463 8.04112 14.0939C8.04065 13.4282 8.04897 12.9529 8.06609 12.6681C8.34356 8.00314 10.9542 3.86892 15.067 1.63061C17.4651 0.326009 19.9473 -0.100538 22.6307 0.0192945C29.5839 0.330289 35.2353 5.9075 35.4714 12.9377C35.4717 12.9472 35.4758 12.9562 35.4826 12.9627C35.4894 12.9693 35.4984 12.9728 35.5078 12.9726C35.9595 12.9717 36.412 12.9719 36.8651 12.9733C37.1571 12.9738 37.3699 13.0083 37.5035 13.0768C37.9101 13.2858 37.9586 13.6367 37.9579 14.0961C37.9565 14.9729 37.9565 15.8496 37.9579 16.726C37.9584 17.0883 37.9246 17.3387 37.8566 17.477C37.6647 17.8665 37.3209 17.9393 36.8837 17.9393C33.5541 17.9383 30.2247 17.9383 26.8955 17.9393C26.5089 17.9393 26.2481 17.9088 26.113 17.848C25.6965 17.6604 25.628 17.2916 25.6287 16.8358C25.6296 15.939 25.6299 15.0421 25.6294 14.1453C25.6289 13.8015 25.6641 13.5609 25.735 13.4234C25.9233 13.0575 26.2443 12.9748 26.6623 12.9733C27.0641 12.9719 27.464 12.9717 27.862 12.9726C27.8673 12.9727 27.8725 12.9718 27.8774 12.9697C27.8823 12.9677 27.8866 12.9647 27.8903 12.9608C27.8939 12.957 27.8967 12.9525 27.8985 12.9475C27.9002 12.9425 27.9009 12.9372 27.9005 12.932C27.6944 9.78423 25.2806 7.31196 22.1115 7.15647C21.7967 7.14125 21.4671 7.14553 21.1228 7.16931C18.2526 7.36617 15.9108 9.53885 15.5428 12.3849C15.5071 12.6621 15.4893 13.1364 15.4893 13.8079C15.4912 22.4396 15.4912 31.0754 15.4893 39.7153C15.4893 39.7223 15.4914 39.7295 15.4955 39.7362C15.4996 39.7429 15.5056 39.749 15.5128 39.7538ZM22.2006 5.45028C26.2678 5.60221 29.4933 8.90617 29.611 12.9462C29.6112 12.9533 29.6141 12.96 29.6192 12.9649C29.6242 12.9699 29.631 12.9726 29.6381 12.9726H33.6867C33.691 12.9726 33.6952 12.9718 33.6992 12.9701C33.7031 12.9685 33.7067 12.966 33.7097 12.963C33.7127 12.9599 33.715 12.9563 33.7166 12.9523C33.7182 12.9483 33.7189 12.9441 33.7188 12.9398C33.4913 7.37331 29.3706 2.75761 23.8876 1.86743C22.8868 1.7048 21.7784 1.68269 20.7562 1.73761C17.2832 1.92306 14.0998 3.66135 12.0149 6.44246C10.4884 8.47867 9.72401 10.8152 9.72163 13.452C9.71497 22.195 9.71069 30.9444 9.70879 39.7003C9.70879 39.7421 9.72971 39.7631 9.77156 39.7631L13.7011 39.7659C13.7206 39.7659 13.7392 39.7582 13.753 39.7444C13.7668 39.7306 13.7745 39.7119 13.7745 39.6924C13.7712 31.2561 13.7705 22.8184 13.7724 14.3792C13.7724 13.6538 13.7539 12.8585 13.8402 12.1951C14.2803 8.81201 16.8552 6.14431 20.2077 5.55299C20.8518 5.43958 21.5344 5.42531 22.2006 5.45028ZM36.2453 14.7559C36.2453 14.7487 36.2424 14.7418 36.2374 14.7367C36.2323 14.7316 36.2254 14.7287 36.2182 14.7287H27.3691C27.3619 14.7287 27.355 14.7316 27.35 14.7367C27.3449 14.7418 27.342 14.7487 27.342 14.7559V16.2423C27.342 16.2495 27.3449 16.2564 27.35 16.2615C27.355 16.2666 27.3619 16.2695 27.3691 16.2695H36.2182C36.2254 16.2695 36.2323 16.2666 36.2374 16.2615C36.2424 16.2564 36.2453 16.2495 36.2453 16.2423V14.7559Z" fill="white"/>
<path id="Vector_2" d="M36.2859 21.5314C36.7587 21.5314 37.1419 21.1482 37.1419 20.6755C37.1419 20.2027 36.7587 19.8195 36.2859 19.8195C35.8132 19.8195 35.43 20.2027 35.43 20.6755C35.43 21.1482 35.8132 21.5314 36.2859 21.5314Z" fill="white"/>
<path id="Vector_3" d="M35.2815 27.38C34.6421 29.5301 32.1441 30.4841 30.2267 29.3229C28.8125 28.4663 28.2353 26.729 28.7973 25.1732C28.8476 25.0342 28.925 24.9138 28.9889 24.7972C29.8197 23.2845 30.6503 21.7717 31.4806 20.2589C31.5657 20.1041 31.6376 20.0022 31.6962 19.9533C31.8831 19.7973 32.1931 19.794 32.3784 19.9601C32.4271 20.0039 32.4872 20.0903 32.5585 20.2195C33.4122 21.769 34.2633 23.3201 35.1119 24.8727C35.2546 25.1338 35.3509 25.4608 35.4008 25.8538C35.4676 26.3788 35.4278 26.8875 35.2815 27.38ZM32.0214 21.4041C31.3465 22.6298 30.6728 23.8568 29.9971 25.0829C29.8682 25.3166 29.7814 25.5014 29.7366 25.6373C29.276 27.0329 30.2038 28.4968 31.6362 28.7532C32.1733 28.8496 32.6806 28.7674 33.1582 28.5066C34.4061 27.8255 34.7567 26.3442 34.0758 25.1054C33.3972 23.8709 32.7191 22.6371 32.0413 21.4041C32.0403 21.4023 32.0389 21.4008 32.0371 21.3998C32.0354 21.3988 32.0334 21.3983 32.0314 21.3983C32.0293 21.3983 32.0274 21.3988 32.0256 21.3998C32.0239 21.4008 32.0224 21.4023 32.0214 21.4041Z" fill="white"/>
<path id="Vector_4" d="M26.2001 24.8389C26.9316 24.8389 27.5246 24.2459 27.5246 23.5143C27.5246 22.7828 26.9316 22.1897 26.2001 22.1897C25.4685 22.1897 24.8755 22.7828 24.8755 23.5143C24.8755 24.2459 25.4685 24.8389 26.2001 24.8389Z" fill="white"/>
<path id="Vector_5" d="M27.0582 34.6152C27.9091 34.6152 28.5989 33.9254 28.5989 33.0745C28.5989 32.2235 27.9091 31.5338 27.0582 31.5338C26.2073 31.5338 25.5175 32.2235 25.5175 33.0745C25.5175 33.9254 26.2073 34.6152 27.0582 34.6152Z" fill="white"/>
<path id="Vector_6" d="M37.144 31.5339C37.6168 31.5339 38 31.1506 38 30.6779C38 30.2052 37.6168 29.822 37.144 29.822C36.6713 29.822 36.2881 30.2052 36.2881 30.6779C36.2881 31.1506 36.6713 31.5339 37.144 31.5339Z" fill="white"/>
</g>
</svg>
