<svg width="32" height="32" viewBox="0 0 32 32" fill="none" xmlns="http://www.w3.org/2000/svg">
<g id="Twitter" clip-path="url(#clip0_6809_1433)">
<path id="Vector" d="M6.82467 0.5H25.1753C28.6684 0.5 31.5 3.33165 31.5 6.82467V25.1753C31.5 28.6684 28.6684 31.5 25.1753 31.5H6.82467C3.33165 31.5 0.5 28.6684 0.5 25.1753V6.82467C0.5 3.33165 3.33165 0.5 6.82467 0.5Z" stroke="#F0F0F6"/>
<path id="Vector_2" fill-rule="evenodd" clip-rule="evenodd" d="M25.7332 11.1464C25.0316 11.457 24.2875 11.6608 23.5255 11.751C24.3223 11.2729 24.9317 10.5183 25.2129 9.623C24.4592 10.0697 23.635 10.3852 22.7755 10.5558C22.2489 9.99043 21.5641 9.59694 20.8105 9.4266C20.0569 9.25627 19.2695 9.31701 18.5509 9.60089C17.8323 9.88478 17.216 10.3786 16.7823 11.018C16.3486 11.6574 16.1177 12.4127 16.1196 13.1853C16.1187 13.4803 16.1517 13.7744 16.2181 14.0618C14.6891 13.9852 13.1934 13.5879 11.828 12.8959C10.4625 12.2039 9.25773 11.2325 8.29188 10.0449C7.79781 10.8915 7.64589 11.8949 7.8672 12.8499C8.08851 13.8048 8.66632 14.6391 9.48245 15.1821C8.87098 15.1629 8.27303 14.9974 7.73878 14.6993V14.7462C7.73878 16.6117 9.06528 18.1679 10.823 18.5194C10.2575 18.6737 9.66422 18.6962 9.08872 18.5851C9.33452 19.3488 9.8126 20.0167 10.4563 20.4957C11.0999 20.9746 11.877 21.2407 12.6792 21.2568C11.8813 21.8839 10.9677 22.3475 9.99041 22.621C9.01316 22.8944 7.99156 22.9724 6.98413 22.8505C8.68561 23.9426 10.7058 24.5754 12.8807 24.5754C19.9585 24.5754 23.8255 18.7163 23.8255 13.6306C23.8255 13.4666 23.8255 13.3025 23.8161 13.1338C24.5661 12.5947 25.2223 11.9151 25.7379 11.1464H25.7332Z" fill="#F0F0F6"/>
</g>
<defs>
<clipPath id="clip0_6809_1433">
<rect width="32" height="32" fill="white"/>
</clipPath>
</defs>
</svg>
