<svg width="32" height="32" viewBox="0 0 32 32" fill="none" xmlns="http://www.w3.org/2000/svg">
<g id="Twitter" clip-path="url(#clip0_6588_2062)">
<path id="Vector" d="M6.82467 0.5H25.1753C28.6684 0.5 31.5 3.33165 31.5 6.82467V25.1753C31.5 28.6684 28.6684 31.5 25.1753 31.5H6.82467C3.33165 31.5 0.5 28.6684 0.5 25.1753V6.82467C0.5 3.33165 3.33165 0.5 6.82467 0.5Z" stroke="#303B7E"/>
<path id="Vector_2" fill-rule="evenodd" clip-rule="evenodd" d="M25.7331 11.1464C25.0315 11.457 24.2874 11.6608 23.5254 11.751C24.3223 11.2729 24.9316 10.5183 25.2128 9.623C24.4591 10.0697 23.6349 10.3852 22.7755 10.5558C22.2488 9.99043 21.5641 9.59694 20.8104 9.4266C20.0568 9.25627 19.2694 9.31701 18.5508 9.60089C17.8323 9.88478 17.2159 10.3786 16.7822 11.018C16.3485 11.6574 16.1176 12.4127 16.1195 13.1853C16.1186 13.4803 16.1516 13.7744 16.218 14.0618C14.6891 13.9852 13.1933 13.5879 11.8279 12.8959C10.4624 12.2039 9.25764 11.2325 8.29179 10.0449C7.79772 10.8915 7.6458 11.8949 7.86711 12.8499C8.08842 13.8048 8.66623 14.6391 9.48235 15.1821C8.87089 15.1629 8.27294 14.9974 7.73869 14.6993V14.7462C7.73869 16.6117 9.06519 18.1679 10.8229 18.5194C10.2575 18.6737 9.66412 18.6962 9.08862 18.5851C9.33442 19.3488 9.81251 20.0167 10.4562 20.4957C11.0998 20.9746 11.8769 21.2407 12.6791 21.2568C11.8813 21.8839 10.9676 22.3475 9.99031 22.621C9.01307 22.8944 7.99147 22.9724 6.98404 22.8505C8.68552 23.9426 10.7057 24.5754 12.8806 24.5754C19.9584 24.5754 23.8254 18.7163 23.8254 13.6306C23.8254 13.4666 23.8254 13.3025 23.816 13.1338C24.566 12.5947 25.2222 11.9151 25.7378 11.1464H25.7331Z" fill="#303B7E"/>
</g>
<defs>
<clipPath id="clip0_6588_2062">
<rect width="32" height="32" fill="white"/>
</clipPath>
</defs>
</svg>
