<svg width="42" height="30" viewBox="0 0 42 30" fill="none" xmlns="http://www.w3.org/2000/svg">
<path fill-rule="evenodd" clip-rule="evenodd" d="M20.7968 0.0149644L20.7539 0.0164198L20.6964 0.0221604L20.6532 0.0293164L20.6245 0.0378871L20.5813 0.0493178L20.5381 0.0621741L20.5094 0.0750195L20.5094 0.0778693C20.4806 0.0907149 20.4522 0.104986 20.4234 0.120681L20.3947 0.142077L20.3659 0.164898L20.3227 0.192004L20.294 0.220525L20.2652 0.254745L20.2365 0.296091L20.2077 0.337437L20.179 0.381633L20.1503 0.424403L20.1359 0.468589L20.1215 0.515625L20.1072 0.562661L20.0928 0.606846L20.0929 0.651022L20.0785 0.695207L20.0785 0.727983L20.0854 9.98486L14.8729 17.3573L12.1678 13.5602C12.0382 13.3707 11.8223 13.2583 11.5923 13.2585C11.3479 13.2586 11.1325 13.3714 11.0033 13.561L0.147071 28.8762C0.00348159 29.0929 -0.0250999 29.3779 0.104449 29.6144C0.219622 29.8495 0.464021 29.9975 0.737145 29.9973L40.987 29.9686C41.2601 29.9684 41.5046 29.82 41.6338 29.5848C41.7486 29.3482 41.734 29.0632 41.5757 28.8467L30.7113 13.5469C30.5818 13.3575 30.3518 13.2451 30.1218 13.2453C29.8918 13.2454 29.6617 13.3582 29.5324 13.5478L26.8042 17.4058L21.5229 9.98384L21.5202 6.38568L27.6583 6.38131C27.9314 6.38111 28.1904 6.22275 28.3052 5.97472C28.42 5.72668 28.3909 5.43315 28.2183 5.21952L26.5491 3.20147L28.2153 1.17106C28.3876 0.957188 28.4306 0.663605 28.3011 0.415745C28.1859 0.167875 27.9411 0.00987294 27.6536 0.0100778L20.7968 0.0149644ZM27.6818 18.6435L34.7186 28.5481L39.606 28.5446L30.1232 15.1961L27.6818 18.6435ZM20.8052 11.4478L32.9649 28.5493L8.68547 28.5666L20.8052 11.4478ZM13.9968 18.5963L11.5938 15.2093L2.13042 28.5713L6.93177 28.5679L13.9968 18.5963ZM21.5166 1.43946L21.5192 4.96067L26.1482 4.95737L25.0691 3.6514C24.8533 3.38935 24.853 3.01458 25.0684 2.75222L26.1456 1.43617L21.5166 1.43946Z" fill="#01248C"/>
</svg>
