<svg width="42" height="28" viewBox="0 0 42 28" fill="none" xmlns="http://www.w3.org/2000/svg">
<path d="M41.068 14.2489C41.0671 14.0312 40.9939 13.8864 40.9207 13.7415C37.8443 7.00586 31.7285 2.24239 24.3218 1.11275C16.7698 -0.0888457 9.23433 2.62811 4.17906 8.38236C2.59031 10.2033 1.21988 12.1684 0.140013 14.2049C0.140013 14.2049 0.140013 14.2049 0.140321 14.2774C0.140629 14.35 0.140628 14.35 0.0683706 14.4229C0.0686786 14.4954 0.0686786 14.4954 0.0689865 14.568C0.0692944 14.6406 0.0692944 14.6406 0.0696023 14.7131C0.0699102 14.7857 0.0699102 14.7857 0.0702182 14.8583C0.0702182 14.8583 0.0702182 14.8583 0.0705261 14.9308C3.07436 21.6668 9.26277 26.43 16.7423 27.6319C17.9768 27.8443 19.1382 27.912 20.2992 27.9071C26.6124 27.8803 32.624 25.1698 36.8851 20.3623C39.1238 17.8129 40.4205 15.5578 40.8525 14.7578C40.997 14.612 41.0686 14.394 41.068 14.2489ZM35.8648 19.3507C31.1708 24.7405 24.0699 27.2379 17.0264 26.1793C10.2006 25.1198 4.44941 20.7902 1.59256 14.489C2.60078 12.6705 3.89927 10.8508 5.27124 9.24853C9.96523 3.85865 17.0662 1.36124 24.1097 2.41985C30.9355 3.4794 36.687 7.88158 39.5435 14.1102C39.1118 14.9829 37.8868 17.0199 35.8648 19.3507Z" fill="#01248C"/>
<path d="M20.4915 4.82978C15.2668 4.85195 11.0036 9.1515 11.0257 14.3762C11.0479 19.601 15.3475 23.8642 20.5722 23.842C25.7969 23.8198 30.0601 19.5203 30.038 14.2956C30.0158 9.07082 25.7162 4.80761 20.4915 4.82978ZM20.566 22.3907C16.1395 22.4095 12.4958 18.7966 12.4771 14.3701C12.4583 9.94356 16.0712 6.29988 20.4977 6.28109C24.9242 6.26231 28.5679 9.8752 28.5866 14.3017C28.6054 18.7282 24.9925 22.3719 20.566 22.3907Z" fill="#01248C"/>
<path d="M21.0537 17.5992C20.9811 17.5995 20.836 17.6001 20.5457 17.6014C18.8042 17.6088 17.2738 16.0914 17.2664 14.3498L17.2655 14.1321C17.3378 14.0592 17.3371 13.9141 17.3368 13.8415C17.3365 13.7689 17.4082 13.5509 17.4076 13.4058C17.5512 13.0424 17.3316 12.6079 16.9682 12.4643C16.6047 12.3207 16.1702 12.5403 16.0267 12.9037C15.9547 13.0491 15.9553 13.1943 15.8837 13.4123C15.8117 13.5577 15.7395 13.6306 15.7401 13.7757L15.7426 14.3562C15.7533 16.896 17.9395 19.0638 20.4793 19.053C20.7696 19.0518 21.1324 19.0502 21.4221 18.9039C21.7843 18.7572 22.0004 18.3934 21.8535 17.9587C21.8522 17.6684 21.4159 17.4525 21.0537 17.5992Z" fill="#01248C"/>
<path d="M20.5122 9.69173C19.714 9.69512 18.989 9.84333 18.3374 10.2089C17.9752 10.3556 17.8319 10.7916 18.0512 11.1535C18.1978 11.5157 18.6338 11.659 18.9957 11.4398C19.5028 11.2199 19.9376 11.0729 20.5906 11.0702C22.3322 11.0628 23.8626 12.5802 23.87 14.3218C23.873 15.0474 23.5859 15.7743 23.2974 16.2109C23.0813 16.5747 23.2283 17.0095 23.592 17.2256C23.7375 17.2976 23.81 17.2973 23.9552 17.2967C24.2454 17.2954 24.4625 17.1494 24.6067 16.9311C24.9671 16.349 25.3259 15.4041 25.3213 14.3156C25.2382 11.8487 23.052 9.68096 20.5122 9.69173Z" fill="#01248C"/>
</svg>
