<?xml version="1.0" standalone="no"?>
<!DOCTYPE svg PUBLIC "-//W3C//DTD SVG 20010904//EN"
 "http://www.w3.org/TR/2001/REC-SVG-20010904/DTD/svg10.dtd">
<svg version="1.0" xmlns="http://www.w3.org/2000/svg"
 width="1008.000000pt" height="839.000000pt" viewBox="0 0 1008.000000 839.000000"
 preserveAspectRatio="xMidYMid meet">

<g transform="translate(0.000000,839.000000) scale(0.100000,-0.100000)"
fill="#000000" stroke="none">
<path d="M3883 6534 c-18 -9 -241 -228 -495 -488 -934 -950 -1078 -1101 -1238
-1298 -51 -62 -98 -114 -105 -116 -8 -2 -14 16 -18 50 -4 29 -7 404 -7 834 0
430 -3 802 -6 828 -5 34 -14 52 -29 62 -30 20 -71 9 -93 -24 -15 -23 -16 -172
-20 -1836 -3 -1759 3 -2219 28 -2266 6 -10 18 -21 29 -25 23 -7 67 12 77 34 5
9 11 399 14 868 3 613 8 855 16 863 9 9 24 5 61 -14 184 -93 501 -199 930
-310 116 -30 230 -64 252 -76 63 -32 111 -23 111 21 0 29 -44 54 -152 88 -648
203 -824 263 -953 326 -189 91 -244 149 -231 243 19 143 216 405 609 811 106
108 449 462 762 785 314 324 571 597 573 608 8 46 -52 63 -115 32z"/>
<path d="M6214 6271 c-39 -24 -76 -73 -97 -128 -23 -60 -54 -287 -68 -503 -13
-187 -16 -1802 -4 -1839 6 -20 45 -41 74 -41 44 0 67 37 121 192 79 229 162
395 206 412 25 10 42 -37 59 -159 28 -204 70 -263 180 -252 67 7 159 54 212
109 41 42 101 153 89 165 -3 4 -42 -28 -85 -70 -112 -109 -169 -130 -220 -79
-27 26 -28 32 -34 160 -9 199 -34 237 -154 229 -113 -8 -174 -61 -263 -227
-44 -82 -45 -83 -48 -50 -6 62 18 258 73 590 101 605 139 947 133 1200 -3 146
-6 171 -27 217 -12 28 -31 59 -40 67 -29 26 -72 29 -107 7z m92 -163 c13 -39
6 -284 -16 -523 -21 -233 -73 -694 -90 -795 -21 -124 14 939 39 1195 10 95 26
145 47 145 7 0 16 -10 20 -22z"/>
<path d="M6850 5925 l0 -45 1140 0 1140 0 -2 -1582 -3 -1583 -2122 -3 -2123
-2 0 -45 0 -45 2170 0 2170 0 0 1675 0 1675 -1185 0 -1185 0 0 -45z"/>
<path d="M1100 4295 l0 -1375 303 2 302 3 3 32 3 33 -268 2 -268 3 -3 1303 -2
1302 270 0 270 0 0 35 0 35 -305 0 -305 0 0 -1375z"/>
<path d="M6530 5635 l0 -35 1103 -2 1102 -3 0 -1300 0 -1300 -3253 -3 -3253
-2 3 -33 3 -32 3285 0 3285 0 0 1370 0 1370 -1137 3 -1138 2 0 -35z"/>
<path d="M4294 4420 c-12 -5 -28 -18 -36 -29 l-14 -20 -55 20 c-194 74 -431
-94 -471 -335 -20 -115 22 -194 118 -222 113 -32 221 10 297 118 25 35 51 75
58 91 17 37 25 34 32 -12 14 -111 77 -157 202 -149 136 9 231 80 310 229 63
120 44 131 -45 27 -109 -129 -184 -178 -242 -162 -66 19 -95 103 -77 227 24
173 24 193 -2 211 -26 18 -43 19 -75 6z m-122 -118 l37 -17 -23 -58 c-50 -121
-153 -259 -218 -293 -61 -32 -104 14 -94 100 23 200 167 329 298 268z"/>
<path d="M4992 4377 c-7 -8 -10 -215 -9 -646 l2 -634 24 -11 c19 -8 26 -7 40
11 17 20 25 81 66 514 30 314 76 507 147 615 34 51 80 84 116 84 33 0 79 -50
87 -93 13 -67 2 -83 -78 -120 -104 -48 -153 -113 -131 -176 21 -61 143 -78
218 -31 43 26 90 96 105 154 11 44 11 45 97 77 86 32 144 74 144 102 0 30 -20
27 -86 -12 -74 -45 -118 -58 -138 -42 -8 7 -19 31 -25 54 -14 57 -48 106 -91
131 -45 27 -140 27 -189 2 -55 -29 -125 -101 -151 -156 -13 -27 -25 -48 -27
-46 -2 2 -10 52 -18 110 -8 59 -17 111 -20 116 -9 14 -71 12 -83 -3z m468
-342 c0 -43 -67 -122 -94 -112 -20 8 -20 30 -1 67 23 45 95 78 95 45z"/>
<path d="M7782 2249 c-47 -14 -72 -60 -72 -132 0 -112 61 -160 159 -126 30 11
31 12 31 75 l0 64 -40 0 c-29 0 -40 -4 -40 -15 0 -9 9 -15 25 -15 22 0 25 -4
25 -40 0 -34 -4 -41 -25 -46 -68 -17 -112 37 -102 125 6 53 46 96 81 87 12 -3
31 -9 44 -12 16 -5 22 -2 22 9 0 14 -16 22 -60 32 -8 2 -30 -1 -48 -6z"/>
<path d="M8542 2248 c-52 -14 -74 -59 -70 -140 3 -54 8 -72 27 -92 53 -56 140
-42 172 28 54 119 -20 235 -129 204z m88 -44 c11 -10 15 -36 15 -85 0 -62 -3
-73 -24 -90 -67 -54 -135 21 -115 126 12 66 80 92 124 49z"/>
<path d="M5160 2120 l0 -130 75 0 c43 0 75 4 75 10 0 6 -25 10 -55 10 l-55 0
0 50 0 50 45 0 c25 0 45 5 45 10 0 6 -20 10 -45 10 l-45 0 0 45 0 45 50 0 c38
0 50 4 50 15 0 12 -14 15 -70 15 l-70 0 0 -130z"/>
<path d="M5410 2243 c0 -4 18 -62 39 -128 31 -98 42 -121 59 -123 18 -3 25 11
61 124 22 71 38 130 36 132 -16 16 -36 -20 -61 -107 -16 -56 -31 -101 -35
-101 -3 0 -18 46 -35 102 -21 75 -34 104 -46 106 -10 2 -18 0 -18 -5z"/>
<path d="M5730 2120 l0 -130 70 0 c40 0 70 4 70 10 0 6 -22 10 -50 10 -44 0
-50 3 -56 24 -3 13 -4 35 -2 47 2 20 10 24 46 27 53 4 55 22 2 22 -42 0 -42 1
-45 58 l-1 32 53 0 c40 0 53 4 53 15 0 12 -14 15 -70 15 l-70 0 0 -130z"/>
<path d="M6010 2121 c0 -110 2 -131 15 -131 12 0 15 13 15 55 0 51 2 55 23 55
17 0 30 -13 53 -52 20 -36 37 -54 52 -56 22 -3 22 -2 -8 46 -35 58 -36 65 -10
83 30 21 36 70 12 99 -16 20 -31 25 -86 28 l-66 4 0 -131z m118 87 c7 -7 12
-21 12 -33 0 -31 -19 -45 -62 -45 l-38 0 0 45 0 45 38 0 c21 0 43 -5 50 -12z"/>
<path d="M6310 2170 c31 -61 40 -91 40 -130 0 -43 3 -50 20 -50 17 0 20 7 20
50 0 39 9 69 40 130 35 70 38 80 22 80 -13 0 -27 -19 -47 -60 -16 -33 -32 -60
-35 -60 -3 0 -19 27 -35 60 -20 41 -34 60 -47 60 -16 0 -13 -10 22 -80z"/>
<path d="M6560 2235 c0 -10 11 -15 35 -15 l35 0 0 -115 c0 -94 3 -115 15 -115
12 0 15 22 17 113 l3 112 38 3 c24 2 37 8 37 18 0 11 -18 14 -90 14 -73 0 -90
-3 -90 -15z"/>
<path d="M6860 2119 c0 -119 2 -130 18 -127 13 2 18 15 20 61 l3 57 54 0 55 0
0 -60 c0 -47 3 -60 15 -60 13 0 15 21 15 130 0 109 -2 130 -15 130 -12 0 -15
-13 -15 -55 l0 -55 -55 0 -55 0 0 55 c0 48 -2 55 -20 55 -19 0 -20 -7 -20
-131z"/>
<path d="M7200 2120 c0 -109 2 -130 15 -130 13 0 15 21 15 130 0 109 -2 130
-15 130 -13 0 -15 -21 -15 -130z"/>
<path d="M7390 2120 c0 -109 2 -130 15 -130 12 0 15 18 15 103 l1 102 49 -102
c43 -91 52 -103 74 -103 l26 0 0 130 c0 109 -2 130 -15 130 -12 0 -15 -19 -16
-107 l0 -108 -55 108 c-41 82 -59 107 -74 107 -19 0 -20 -7 -20 -130z"/>
<path d="M8225 2165 c34 -64 45 -97 45 -130 0 -33 4 -45 15 -45 11 0 15 12 15
49 0 39 9 66 40 123 44 82 46 88 25 88 -8 0 -28 -27 -45 -60 -17 -33 -32 -60
-35 -60 -3 0 -18 27 -35 60 -21 42 -36 60 -50 60 -17 0 -14 -9 25 -85z"/>
<path d="M8820 2144 c0 -104 0 -106 30 -136 27 -27 36 -30 73 -25 67 9 77 30
77 158 0 90 -3 109 -15 109 -12 0 -15 -18 -15 -98 0 -129 -26 -166 -91 -132
-17 10 -19 22 -19 120 0 103 -1 110 -20 110 -19 0 -20 -7 -20 -106z"/>
<path d="M9130 2011 c0 -27 19 -36 37 -18 18 18 9 37 -18 37 -12 0 -19 -7 -19
-19z"/>
</g>
</svg>
