<svg width="22" height="23" viewBox="0 0 22 23" fill="none" xmlns="http://www.w3.org/2000/svg">
<path id="Vector" d="M18.7778 10.3889H3.22222M18.7778 10.3889C19.3671 10.3889 19.9324 10.623 20.3491 11.0398C20.7659 11.4565 21 12.0217 21 12.6111V19.2778C21 19.8671 20.7659 20.4324 20.3491 20.8491C19.9324 21.2659 19.3671 21.5 18.7778 21.5H3.22222C2.63285 21.5 2.06762 21.2659 1.65087 20.8491C1.23413 20.4324 1 19.8671 1 19.2778V12.6111C1 12.0217 1.23413 11.4565 1.65087 11.0398C2.06762 10.623 2.63285 10.3889 3.22222 10.3889M18.7778 10.3889V8.16667C18.7778 7.5773 18.5437 7.01207 18.1269 6.59532C17.7102 6.17857 17.1449 5.94444 16.5556 5.94444M3.22222 10.3889V8.16667C3.22222 7.5773 3.45635 7.01207 3.8731 6.59532C4.28984 6.17857 4.85507 5.94444 5.44444 5.94444M16.5556 5.94444V3.72222C16.5556 3.13285 16.3214 2.56762 15.9047 2.15087C15.4879 1.73413 14.9227 1.5 14.3333 1.5H7.66667C7.0773 1.5 6.51207 1.73413 6.09532 2.15087C5.67857 2.56762 5.44444 3.13285 5.44444 3.72222V5.94444M16.5556 5.94444H5.44444" stroke="black" stroke-width="2" stroke-linecap="round" stroke-linejoin="round"/>
</svg>
