<svg width="168" height="168" viewBox="0 0 168 168" fill="none" xmlns="http://www.w3.org/2000/svg">
<circle cx="32.2529" cy="49.3276" r="1.11796" transform="rotate(-45 32.2529 49.3276)" fill="#5C5C5C"/>
<circle cx="26.456" cy="68.6167" r="1.11796" transform="rotate(-45 26.456 68.6167)" fill="#5C5C5C"/>
<circle cx="22.0302" cy="90.541" r="1.11796" transform="rotate(-45 22.0302 90.541)" fill="#5C5C5C"/>
<circle cx="39.2099" cy="117.628" r="1.11796" transform="rotate(-45 39.2099 117.628)" fill="#5C5C5C"/>
<circle cx="56.9131" cy="125.429" r="1.11796" transform="rotate(-45 56.9131 125.429)" fill="#5C5C5C"/>
<circle cx="72.0967" cy="143.768" r="1.11796" transform="rotate(-45 72.0967 143.768)" fill="#5C5C5C"/>
<circle cx="94.6513" cy="139.974" r="1.11796" transform="rotate(-45 94.6513 139.974)" fill="#5C5C5C"/>
<circle cx="117.522" cy="136.285" r="1.11796" transform="rotate(-45 117.522 136.285)" fill="#5C5C5C"/>
<circle cx="113.831" cy="114.045" r="1.11796" transform="rotate(-45 113.831 114.045)" fill="#5C5C5C"/>
<circle cx="139.444" cy="111.199" r="1.11796" transform="rotate(-45 139.444 111.199)" fill="#5C5C5C"/>
<circle cx="123.425" cy="89.2764" r="1.11796" transform="rotate(-45 123.425 89.2764)" fill="#5C5C5C"/>
<circle cx="144.397" cy="86.6401" r="1.11796" transform="rotate(-45 144.397 86.6401)" fill="#5C5C5C"/>
<circle cx="126.374" cy="65.4551" r="1.11796" transform="rotate(-45 126.374 65.4551)" fill="#5C5C5C"/>
<circle cx="121.319" cy="53.228" r="1.11796" transform="rotate(-45 121.319 53.228)" fill="#5C5C5C"/>
<circle cx="141.237" cy="62.8193" r="1.11796" transform="rotate(-45 141.237 62.8193)" fill="#5C5C5C"/>
<circle cx="105.296" cy="80.2114" r="1.11796" transform="rotate(-45 105.296 80.2114)" fill="#5C5C5C"/>
<circle cx="114.464" cy="39.21" r="1.11796" transform="rotate(-45 114.464 39.21)" fill="#5C5C5C"/>
<circle cx="107.3" cy="59.6577" r="1.11796" transform="rotate(-45 107.3 59.6577)" fill="#5C5C5C"/>
<circle cx="88.9599" cy="29.7231" r="1.11796" transform="rotate(-45 88.9599 29.7231)" fill="#5C5C5C"/>
<circle cx="86.0068" cy="45.1123" r="1.11796" transform="rotate(-45 86.0068 45.1123)" fill="#5C5C5C"/>
<circle cx="71.5654" cy="29.1968" r="1.11796" transform="rotate(-45 71.5654 29.1968)" fill="#5C5C5C"/>
<circle cx="65.7685" cy="56.0737" r="1.11796" transform="rotate(-45 65.7685 56.0737)" fill="#5C5C5C"/>
<circle cx="44.0576" cy="53.5435" r="1.11796" transform="rotate(-45 44.0576 53.5435)" fill="#5C5C5C"/>
<circle cx="57.2334" cy="39.5264" r="1.11796" transform="rotate(-45 57.2334 39.5264)" fill="#5C5C5C"/>
<circle cx="69.0381" cy="76.8384" r="1.11796" transform="rotate(-45 69.0381 76.8384)" fill="#5C5C5C"/>
<circle cx="49.2217" cy="67.9844" r="1.11796" transform="rotate(-45 49.2217 67.9844)" fill="#5C5C5C"/>
<circle cx="41.3154" cy="89.8022" r="1.11796" transform="rotate(-45 41.3154 89.8022)" fill="#5C5C5C"/>
<circle cx="57.7568" cy="92.7544" r="1.11796" transform="rotate(-45 57.7568 92.7544)" fill="#5C5C5C"/>
<circle cx="70.8271" cy="114.678" r="1.11796" transform="rotate(-45 70.8271 114.678)" fill="#5C5C5C"/>
<circle cx="90.4326" cy="122.266" r="1.11796" transform="rotate(-45 90.4326 122.266)" fill="#5C5C5C"/>
<circle cx="91.1709" cy="103.821" r="1.11796" transform="rotate(-45 91.1709 103.821)" fill="#5C5C5C"/>
<circle cx="84.6357" cy="62.7148" r="1.11796" transform="rotate(-45 84.6357 62.7148)" fill="#5C5C5C"/>
<circle cx="83.7955" cy="83.7949" r="10.2107" transform="rotate(-45 83.7955 83.7949)" fill="black"/>
</svg>
