<svg width="26" height="20" viewBox="0 0 26 20" fill="none" xmlns="http://www.w3.org/2000/svg">
<g id="Iconly/Light-Outline/3-User">
<g id="3-User">
<path id="Combined-Shape" d="M8.81331 5.44158C8.8138 3.15059 10.6763 1.28677 12.9679 1.28677C15.2595 1.28677 17.1236 3.15087 17.1236 5.44249C17.1236 7.5661 15.5245 9.32079 13.4679 9.56832V9.99159L12.4681 10.0082L12.4535 9.56865C11.5313 9.45842 10.6776 9.04322 10.0139 8.3749C9.23537 7.59091 8.80952 6.55007 8.81331 5.44158ZM8.81331 5.44158C8.81331 5.44128 8.81331 5.44097 8.81331 5.44067L9.31331 5.44249H8.81331C8.81331 5.44218 8.81331 5.44188 8.81331 5.44158ZM12.7053 18.7133L12.7073 18.7133L12.9659 18.7143H12.9679C14.393 18.7143 15.9927 18.628 17.25 18.3201C17.8758 18.1668 18.459 17.9489 18.8962 17.6278C19.347 17.2966 19.6715 16.8295 19.6715 16.2155C19.6715 15.5991 19.3498 15.1281 18.8986 14.7925C18.4613 14.4673 17.8777 14.2465 17.2514 14.0911C15.9935 13.7792 14.3932 13.6917 12.9679 13.6917C11.5427 13.6917 9.94253 13.7783 8.68491 14.087C8.05885 14.2406 7.47542 14.4591 7.03811 14.781C6.58717 15.113 6.26303 15.5808 6.26303 16.1952C6.26303 16.7915 6.5655 17.2529 6.99643 17.5859C7.41348 17.9082 7.97047 18.1293 8.56916 18.2867C9.77108 18.6025 11.3083 18.7025 12.7053 18.7133ZM23.2904 16.5558L23.2902 16.5553C23.2129 16.3531 23.3149 16.1253 23.5177 16.0482L23.518 16.0481C23.971 15.8758 24.2754 15.6662 24.4559 15.4092C24.6478 15.1361 24.6478 14.8803 24.6478 14.773V14.7708C24.6478 14.252 24.3031 13.8944 23.8931 13.6693C23.4871 13.4465 22.9258 13.2957 22.2508 13.1948C22.0357 13.1619 21.8872 12.9617 21.9193 12.7454C21.9496 12.5423 22.1392 12.389 22.374 12.4169C23.7485 12.6237 24.5028 13.039 24.9126 13.4593C25.3145 13.8717 25.4345 14.3398 25.4345 14.7708C25.4345 15.0318 25.3831 15.393 25.1662 15.7518C24.9535 16.1038 24.5578 16.4939 23.7995 16.7831C23.7508 16.8013 23.7034 16.8092 23.6582 16.8092C23.499 16.8092 23.3498 16.7117 23.2904 16.5558ZM2.41738 16.048L2.41803 16.0482C2.62087 16.1253 2.72287 16.3531 2.64553 16.5553L2.64535 16.5558C2.58589 16.7117 2.43678 16.8092 2.27753 16.8092C2.2323 16.8092 2.1849 16.8012 2.13615 16.7831C1.37726 16.4932 0.981224 16.1028 0.768412 15.7508C0.551435 15.3919 0.5 15.0311 0.5 14.7708C0.5 14.3405 0.61999 13.8723 1.02212 13.4598C1.432 13.0393 2.1864 12.6239 3.56104 12.417C3.79563 12.3899 3.98407 12.5417 4.01532 12.7461C4.04699 12.9621 3.89855 13.162 3.68371 13.1948C3.00869 13.2957 2.44748 13.4465 2.04143 13.6693C1.6314 13.8944 1.28677 14.252 1.28677 14.7708V14.7729C1.28676 14.8803 1.28674 15.1362 1.47909 15.4093C1.65977 15.6658 1.96425 15.8752 2.41738 16.048ZM9.4565 8.92974L9.45588 8.92912C8.5277 7.99553 8.02115 6.75809 8.02652 5.44095V5.43891C8.02652 2.71813 10.2434 0.5 12.9679 0.5C15.6934 0.5 17.9104 2.71798 17.9104 5.44249C17.9104 8.16699 15.6934 10.385 12.9679 10.385H12.9365C11.616 10.3804 10.3821 9.86404 9.4565 8.92974ZM20.1693 9.20043L20.1681 9.20061C20.1538 9.20265 20.1362 9.20392 20.1149 9.20392C19.9229 9.20392 19.7545 9.0619 19.7263 8.86525C19.6964 8.64776 19.8467 8.45047 20.0609 8.42076L20.0617 8.42064C21.5476 8.21205 22.6657 6.92651 22.6685 5.42497V5.42402C22.6685 3.9369 21.6003 2.67732 20.1304 2.43631C19.9176 2.40136 19.7716 2.19938 19.8066 1.98414C19.8424 1.77134 20.0404 1.62626 20.2607 1.66042C22.1121 1.96563 23.4551 3.54769 23.4553 5.42611C23.4507 7.31548 22.0365 8.9385 20.1693 9.20043ZM3.26721 5.42641L3.26722 5.42736C3.27007 6.92628 4.388 8.21343 5.8732 8.4207L5.87362 8.42075C6.08782 8.45046 6.23808 8.64764 6.2083 8.86505C6.18019 9.06181 6.01167 9.20392 5.81961 9.20392C5.79838 9.20392 5.78073 9.20265 5.76644 9.20061L5.76519 9.20043C3.89798 8.9385 2.48497 7.31539 2.48045 5.4283C2.48068 3.54754 3.8237 1.9658 5.67467 1.66048C5.90223 1.6256 6.09273 1.76897 6.12916 1.98446C6.164 2.19958 6.018 2.40138 5.8053 2.43631C4.33513 2.67737 3.26722 3.93719 3.26721 5.42641ZM12.9677 12.9049H12.9679L13.1007 12.905L13.1022 12.905L13.3999 12.906C13.4002 12.906 13.4004 12.906 13.4006 12.906C14.548 12.9135 16.3698 12.977 17.8927 13.4575C18.6524 13.6972 19.2986 14.029 19.7496 14.4751C20.1874 14.9082 20.4583 15.4642 20.4583 16.2155C20.4583 16.9655 20.1953 17.518 19.772 17.946C19.336 18.3869 18.709 18.7153 17.9644 18.9527C16.4707 19.4291 14.6601 19.4924 13.4376 19.5L12.534 19.5C11.3865 19.4924 9.56502 19.4289 8.04219 18.9492C7.2823 18.7097 6.6359 18.3783 6.18489 17.9328C5.74707 17.5003 5.47626 16.9452 5.47626 16.1952C5.47626 15.4496 5.74653 14.8975 6.18416 14.467C6.63509 14.0233 7.28154 13.6931 8.04163 13.4546C9.56518 12.9766 11.3875 12.9135 12.535 12.906C12.5353 12.906 12.5355 12.906 12.5357 12.906L12.8338 12.905L12.835 12.905L12.9677 12.9049Z" stroke="black"/>
</g>
</g>
</svg>
